<svg xmlns="http://www.w3.org/2000/svg" width="496" height="151.05" viewBox="0 0 500 155.05">
 <g transform="matrix(1.3333 0 0 -1.3333 31.168 699.6)">
  <g transform="translate(-.50676)">
   <path d="m2.73 409.89 67.971 32.107v3.1636l-67.971-15.43z" fill="#ffb81c"/>
   <path transform="matrix(.75 0 0 -.75 -23.376 524.7)" d="m125.44 2.0273-122.73 17.568v114.32l122.73-27.861zm241.23 27.305c-9.6042 0-17.205 4.0009-17.205 14.404v9.2031c0 7.3051 3.8997 10.504 10.701 14.404l8.1055 4.6035c3.5006 1.8995 4.6016 3.7008 4.6016 7.3027v5.502c0 4.2998-2.5033 6.2012-6.0039 6.2012-3.5006 0-6.002-1.9014-6.002-6.2012v-10.604h-11.402v12.201c0 10.904 6.7007 14.607 17.307 14.607h0.19922c10.603 0 17.307-3.8016 17.307-14.607v-10.102c0-7.5021-4.0021-10.605-10.705-14.406l-8.2051-4.5996c-3.298-1.9023-4.5-3.5016-4.5-7.1035v-4.8008c0-4.4039 2.5022-6.0039 5.9043-6.0039 3.3993 0 5.9004 1.6 5.9004 6.0039v9.8047h11.402v-11.406c0-10.403-7.6009-14.404-17.205-14.404zm-104.73 0.79883v70.025h31.014v-10.203h-19.408v-20.207h16.006v-10.203h-16.006v-19.207h19.105v-10.205zm205.75 0v70.025h31.014v-10.203h-19.408v-20.207h16.006v-10.203h-16.006v-19.205h19.107v-10.207zm-321.58 2e-3v70.025h11.605v-27.912h5.8027l8.9004 27.912h11.807l-10.006-29.713c4.8007-2.0993 7.6035-6.3009 7.6035-13.004v-12.506c0-10.603-7.0014-14.803-17.607-14.803zm48.01 0v70.025h11.605v-70.025zm20.307 0 13.205 70.025h12.805l13.203-70.025h-11.203l-8.1016 51.918-8.1035-51.918zm89.225 0v70.025h11.602v-27.912h5.8027l8.9043 27.912h11.805l-10.004-29.713c4.8007-2.0993 7.6035-6.3009 7.6035-13.004v-12.506c0-10.603-7.0043-14.803-17.607-14.803zm91.924 0v70.025h11.605v-70.025zm24.506 0v70.023h17.906c10.606 0 17.607-4.2015 17.607-14.805v-40.414c0-10.603-7.0014-14.805-17.607-14.805zm-262.37 10.203h6.0996c3.8017 0 6.4023 1.3971 6.4023 6.4004v9.1035c0 5.0005-2.6006 6.4023-6.4023 6.4023h-6.0996zm157.54 0h6.1055c3.8017 0 6.4004 1.3971 6.4004 6.4004v9.1035c0 5.0005-2.5987 6.4023-6.4004 6.4023h-6.1055zm116.43 0h5.9004c3.8017 0 6.4024 1.399 6.4024 6.4023v36.812c0 5.0005-2.6006 6.4023-6.4024 6.4023h-5.9004z" fill="#003da5"/>
   <path transform="matrix(.75 0 0 -.75 -23.376 524.7)" d="m87.125 29.332c-10.617 0-17.627 4.4037-17.627 14.818v42.055c0 10.916 7.0097 14.822 17.627 14.822h0.19727c10.614 0 17.623-4.0052 17.623-14.822v-14.52h-11.613v12.719c0 4.9076-2.4062 6.4082-6.1094 6.4082-3.706 0-6.1074-1.5006-6.1074-6.4082v-38.453c0-4.9048 2.4014-6.4082 6.1074-6.4082 3.7032 0 6.1094 1.5034 6.1094 6.4082v11.016h11.613v-12.816c0-10.415-7.0086-14.818-17.623-14.818zm-63.932 0.79883v56.074c0 10.918 6.8075 14.82 17.422 14.82h0.40234c10.614 0 17.422-4.0033 17.422-14.82v-56.074h-11.613v54.273c0 5.0061-2.2033 6.4062-6.0078 6.4062-3.8073 0-6.0117-1.4001-6.0117-6.4062v-54.273z" fill="#fff"/>
  </g>
 </g>
</svg>
